<svg viewBox="0 0 331 76" version="1.1" xmlns="http://www.w3.org/2000/svg" xmlns:xlink="http://www.w3.org/1999/xlink">
    <g id="Page-1" stroke="none" stroke-width="1" fill="none" fill-rule="evenodd">
        <g id="stackeye">
            <g id="logo" fill="#2C7BE5" fill-rule="nonzero">
                <path d="M81.406,72.17 C81.406,73.826 75.887,75.163 69.081,75.163 C62.275,75.163 56.757,73.826 56.757,72.17 C56.757,70.52 62.275,69.178 69.081,69.178 C75.887,69.178 81.406,70.52 81.406,72.17 Z" id="Shape"></path>
                <ellipse id="Oval" cx="41.852" cy="71.766" rx="7.834" ry="1.9"></ellipse>
                <path d="M64.964,51.813 C69.707,46.4 72.606,39.335 72.606,31.587 C72.606,14.63 58.81,0.837 41.854,0.837 C24.899,0.837 11.101,14.63 11.101,31.587 C11.101,38.839 13.639,45.5 17.851,50.762 C7.484,52.11 0.594,54.448 0.594,57.116 C0.594,61.297 17.424,64.688 38.183,64.688 C58.942,64.688 75.77,61.296 75.77,57.116 C75.771,55.049 71.641,53.177 64.964,51.813 Z M41.854,6.471 C55.704,6.471 66.972,17.739 66.972,31.587 C66.972,45.44 55.703,56.709 41.854,56.709 C28.004,56.709 16.735,45.439 16.735,31.587 C16.734,17.738 28.003,6.471 41.854,6.471 Z" id="Shape"></path>
                <path d="M45.021,41.711 C53.626,41.711 60.6,34.734 60.6,26.129 C60.6,23.807 60.074,21.607 59.161,19.625 C58.426,22.97 55.454,25.479 51.884,25.479 C47.761,25.479 44.423,22.14 44.423,18.019 C44.423,14.889 46.353,12.215 49.084,11.109 C47.791,10.756 46.431,10.553 45.021,10.553 C36.421,10.553 29.446,17.53 29.446,26.129 C29.446,34.734 36.422,41.711 45.021,41.711 Z" id="Shape"></path>
            </g>
            <g id="brand" transform="translate(102.000000, 25.000000)" fill="#12263F">
                <path d="M17.892,7.136 C17.7239992,6.96799916 17.4180022,6.74000144 16.974,6.452 C16.5299978,6.16399856 15.9900032,5.88200138 15.354,5.606 C14.7179968,5.32999862 14.0280037,5.09600096 13.284,4.904 C12.5399963,4.71199904 11.7840038,4.616 11.016,4.616 C9.64799316,4.616 8.62800336,4.86799748 7.956,5.372 C7.28399664,5.87600252 6.948,6.58399544 6.948,7.496 C6.948,8.02400264 7.07399874,8.46199826 7.326,8.81 C7.57800126,9.15800174 7.9439976,9.46399868 8.424,9.728 C8.9040024,9.99200132 9.50999634,10.2319989 10.242,10.448 C10.9740037,10.6640011 11.8199952,10.8919988 12.78,11.132 C14.0280062,11.4680017 15.1619949,11.8279981 16.182,12.212 C17.2020051,12.5960019 18.0659965,13.0759971 18.774,13.652 C19.4820035,14.2280029 20.0279981,14.917996 20.412,15.722 C20.7960019,16.526004 20.988,17.5159941 20.988,18.692 C20.988,20.0600068 20.7300026,21.2299951 20.214,22.202 C19.6979974,23.1740049 19.0020044,23.959997 18.126,24.56 C17.2499956,25.160003 16.2420057,25.5979986 15.102,25.874 C13.9619943,26.1500014 12.7680062,26.288 11.52,26.288 C9.5999904,26.288 7.70400936,26.0000029 5.832,25.424 C3.95999064,24.8479971 2.28000744,24.0320053 0.792,22.976 L2.988,18.692 C3.20400108,18.9080011 3.59399718,19.1899983 4.158,19.538 C4.72200282,19.8860017 5.38799616,20.2339983 6.156,20.582 C6.92400384,20.9300017 7.77599532,21.2239988 8.712,21.464 C9.64800468,21.7040012 10.6079951,21.824 11.592,21.824 C14.3280137,21.824 15.696,20.9480088 15.696,19.196 C15.696,18.6439972 15.5400016,18.1760019 15.228,17.792 C14.9159984,17.4079981 14.4720029,17.0720014 13.896,16.784 C13.3199971,16.4959986 12.6240041,16.2320012 11.808,15.992 C10.9919959,15.7519988 10.080005,15.4880014 9.072,15.2 C7.84799388,14.8639983 6.7860045,14.498002 5.886,14.102 C4.9859955,13.705998 4.236003,13.2380027 3.636,12.698 C3.035997,12.1579973 2.5860015,11.5340035 2.286,10.826 C1.9859985,10.1179965 1.836,9.27200492 1.836,8.288 C1.836,6.99199352 2.0759976,5.84000504 2.556,4.832 C3.0360024,3.82399496 3.70199574,2.98400336 4.554,2.312 C5.40600426,1.63999664 6.39599436,1.13000174 7.524,0.782 C8.65200564,0.43399826 9.86399352,0.26 11.16,0.26 C12.960009,0.26 14.6159924,0.54199718 16.128,1.106 C17.6400076,1.67000282 18.9599944,2.33599616 20.088,3.104 L17.892,7.136 Z" id="Path"></path>
                <polygon id="Path" points="50.668 4.796 42.496 4.796 42.496 26 37.564 26 37.564 4.796 29.392 4.796 29.392 0.44 50.668 0.44"></polygon>
                <path d="M65.588,0.44 L69.98,0.44 L79.7,26 L74.588,26 L72.212,19.628 L63.284,19.628 L60.944,26 L55.832,26 L65.588,0.44 Z M71.312,16.136 L67.784,6.092 L64.112,16.136 L71.312,16.136 Z" id="Combined-Shape"></path>
                <path d="M87.024,13.04 C87.024,11.4799922 87.3059972,9.93800762 87.87,8.414 C88.4340028,6.88999238 89.2559946,5.528006 90.336,4.328 C91.4160054,3.127994 92.7359922,2.15600372 94.296,1.412 C95.8560078,0.66799628 97.63199,0.296 99.624,0.296 C101.976012,0.296 104.009991,0.81199484 105.726,1.844 C107.442009,2.87600516 108.719996,4.21999172 109.56,5.876 L105.744,8.504 C105.407998,7.7839964 105.000002,7.17800246 104.52,6.686 C104.039998,6.19399754 103.524003,5.80400144 102.972,5.516 C102.419997,5.22799856 101.844003,5.01800066 101.244,4.886 C100.643997,4.75399934 100.056003,4.688 99.48,4.688 C98.2319938,4.688 97.1460046,4.93999748 96.222,5.444 C95.2979954,5.94800252 94.5300031,6.60199598 93.918,7.406 C93.3059969,8.21000402 92.8440016,9.1219949 92.532,10.142 C92.2199984,11.1620051 92.064,12.175995 92.064,13.184 C92.064,14.3120056 92.2439982,15.3979948 92.604,16.442 C92.9640018,17.4860052 93.4739967,18.403996 94.134,19.196 C94.7940033,19.988004 95.5859954,20.6239976 96.51,21.104 C97.4340046,21.5840024 98.4479945,21.824 99.552,21.824 C100.128003,21.824 100.727997,21.7520007 101.352,21.608 C101.976003,21.4639993 102.569997,21.2360016 103.134,20.924 C103.698003,20.6119984 104.219998,20.2100025 104.7,19.718 C105.180002,19.2259975 105.563999,18.6320035 105.852,17.936 L109.92,20.276 C109.511998,21.2360048 108.930004,22.0819963 108.174,22.814 C107.417996,23.5460037 106.566005,24.1639975 105.618,24.668 C104.669995,25.1720025 103.656005,25.5559987 102.576,25.82 C101.495995,26.0840013 100.440005,26.216 99.408,26.216 C97.5839909,26.216 95.9160076,25.8320038 94.404,25.064 C92.8919924,24.2959962 91.5900055,23.2940062 90.498,22.058 C89.4059945,20.8219938 88.5540031,19.4180079 87.942,17.846 C87.3299969,16.2739921 87.024,14.6720082 87.024,13.04 Z" id="Path"></path>
                <polygon id="Path" points="120.268 26 120.268 0.476 125.236 0.476 125.236 12.608 135.964 0.44 141.436 0.44 131.644 11.78 142.048 26 136.468 26 128.512 14.948 125.236 18.368 125.236 26"></polygon>
                <polygon id="Path" points="169.1 21.644 169.1 26 151.352 26 151.352 0.44 168.776 0.44 168.776 4.796 156.32 4.796 156.32 10.952 167.084 10.952 167.084 14.984 156.32 14.984 156.32 21.644"></polygon>
                <polygon id="Path" points="182.868 0.44 189.168 12.752 195.576 0.44 200.94 0.44 191.652 17.072 191.652 26 186.72 26 186.72 17 177.468 0.44"></polygon>
                <polygon id="Path" points="228.496 21.644 228.496 26 210.748 26 210.748 0.44 228.172 0.44 228.172 4.796 215.716 4.796 215.716 10.952 226.48 10.952 226.48 14.984 215.716 14.984 215.716 21.644"></polygon>
            </g>
        </g>
    </g>
</svg>
